{
    "asset" : {
        "generator" : "Khronos glTF Blender I/O v3.2.43",
        "version" : "2.0"
    },
    "scene" : 0,
    "scenes" : [
        {
            "name" : "Scene",
            "nodes" : [
                0,
                1,
                2
            ]
        }
    ],
    "nodes" : [
        {
            "mesh" : 0,
            "name" : "Box"
        },
        {
            "mesh" : 1,
            "name" : "Box-Ribbon",
            "rotation" : [
                0,
                0.7071068286895752,
                0,
                0.7071067094802856
            ],
            "scale" : [
                1.0262985229492188,
                1.0262984037399292,
                1.0262985229492188
            ]
        },
        {
            "mesh" : 2,
            "name" : "TopBox-Ribbon",
            "rotation" : [
                0,
                -0.38268333673477173,
                0,
                0.9238795638084412
            ]
        }
    ],
    "materials" : [
        {
            "doubleSided" : true,
            "name" : "Pink01",
            "pbrMetallicRoughness" : {
                "baseColorFactor" : [
                    0.00978871714323759,
                    0.022219138219952583,
                    0.8000000715255737,
                    1
                ],
                "metallicFactor" : 0,
                "roughnessFactor" : 0.5
            }
        },
        {
            "doubleSided" : true,
            "name" : "Pink02",
            "pbrMetallicRoughness" : {
                "baseColorFactor" : [
                    0.08256667852401733,
                    0.6938718557357788,
                    0.3364369869232178,
                    1
                ],
                "metallicFactor" : 0,
                "roughnessFactor" : 0.6000000238418579
            }
        }
    ],
    "meshes" : [
        {
            "name" : "Cube.086",
            "primitives" : [
                {
                    "attributes" : {
                        "POSITION" : 0,
                        "NORMAL" : 1,
                        "TEXCOORD_0" : 2
                    },
                    "indices" : 3,
                    "material" : 0
                }
            ]
        },
        {
            "name" : "Cube.001",
            "primitives" : [
                {
                    "attributes" : {
                        "POSITION" : 4,
                        "NORMAL" : 5,
                        "TEXCOORD_0" : 6
                    },
                    "indices" : 7,
                    "material" : 1
                }
            ]
        },
        {
            "name" : "NurbsPath.006",
            "primitives" : [
                {
                    "attributes" : {
                        "POSITION" : 8,
                        "NORMAL" : 9,
                        "TEXCOORD_0" : 10
                    },
                    "indices" : 11,
                    "material" : 1
                }
            ]
        }
    ],
    "accessors" : [
        {
            "bufferView" : 0,
            "componentType" : 5126,
            "count" : 458,
            "max" : [
                1.0826114416122437,
                1.1458616256713867,
                1.0816529989242554
            ],
            "min" : [
                -1.080694556236267,
                -0.9212377071380615,
                -1.0816529989242554
            ],
            "type" : "VEC3"
        },
        {
            "bufferView" : 1,
            "componentType" : 5126,
            "count" : 458,
            "type" : "VEC3"
        },
        {
            "bufferView" : 2,
            "componentType" : 5126,
            "count" : 458,
            "type" : "VEC2"
        },
        {
            "bufferView" : 3,
            "componentType" : 5123,
            "count" : 1428,
            "type" : "SCALAR"
        },
        {
            "bufferView" : 4,
            "componentType" : 5126,
            "count" : 1170,
            "max" : [
                1.107059359550476,
                1.1737391948699951,
                1.1079933643341064
            ],
            "min" : [
                -1.1070594787597656,
                -0.9502764940261841,
                -1.1061254739761353
            ],
            "type" : "VEC3"
        },
        {
            "bufferView" : 5,
            "componentType" : 5126,
            "count" : 1170,
            "type" : "VEC3"
        },
        {
            "bufferView" : 6,
            "componentType" : 5126,
            "count" : 1170,
            "type" : "VEC2"
        },
        {
            "bufferView" : 7,
            "componentType" : 5123,
            "count" : 6144,
            "type" : "SCALAR"
        },
        {
            "bufferView" : 8,
            "componentType" : 5126,
            "count" : 1036,
            "max" : [
                0.8558186292648315,
                1.6452341079711914,
                0.8427628874778748
            ],
            "min" : [
                -0.8427629470825195,
                1.1931849718093872,
                -0.8558186292648315
            ],
            "type" : "VEC3"
        },
        {
            "bufferView" : 9,
            "componentType" : 5126,
            "count" : 1036,
            "type" : "VEC3"
        },
        {
            "bufferView" : 10,
            "componentType" : 5126,
            "count" : 1036,
            "type" : "VEC2"
        },
        {
            "bufferView" : 11,
            "componentType" : 5123,
            "count" : 5376,
            "type" : "SCALAR"
        }
    ],
    "bufferViews" : [
        {
            "buffer" : 0,
            "byteLength" : 5496,
            "byteOffset" : 0
        },
        {
            "buffer" : 0,
            "byteLength" : 5496,
            "byteOffset" : 5496
        },
        {
            "buffer" : 0,
            "byteLength" : 3664,
            "byteOffset" : 10992
        },
        {
            "buffer" : 0,
            "byteLength" : 2856,
            "byteOffset" : 14656
        },
        {
            "buffer" : 0,
            "byteLength" : 14040,
            "byteOffset" : 17512
        },
        {
            "buffer" : 0,
            "byteLength" : 14040,
            "byteOffset" : 31552
        },
        {
            "buffer" : 0,
            "byteLength" : 9360,
            "byteOffset" : 45592
        },
        {
            "buffer" : 0,
            "byteLength" : 12288,
            "byteOffset" : 54952
        },
        {
            "buffer" : 0,
            "byteLength" : 12432,
            "byteOffset" : 67240
        },
        {
            "buffer" : 0,
            "byteLength" : 12432,
            "byteOffset" : 79672
        },
        {
            "buffer" : 0,
            "byteLength" : 8288,
            "byteOffset" : 92104
        },
        {
            "buffer" : 0,
            "byteLength" : 10752,
            "byteOffset" : 100392
        }
    ],
    "buffers" : [
        {
            "byteLength" : 111144,
            "uri" : "data:application/octet-stream;base64,"
        }
    ]
}
